<?xml version="1.0" standalone="no"?><!DOCTYPE svg PUBLIC "-//W3C//DTD SVG 1.1//EN" "http://www.w3.org/Graphics/SVG/1.1/DTD/svg11.dtd"><svg t="1673753924820" class="icon" viewBox="0 0 1024 1024" version="1.1" xmlns="http://www.w3.org/2000/svg" p-id="20117" xmlns:xlink="http://www.w3.org/1999/xlink" width="128" height="128"><path d="M276 981.333333H181.333333a53.393333 53.393333 0 0 1-53.333333-53.333333V181.333333a53.393333 53.393333 0 0 1 53.333333-53.333333h746.666667a53.393333 53.393333 0 0 1 53.333333 53.333333v746.666667a53.393333 53.393333 0 0 1-53.333333 53.333333H276z m51.5-42.666666H928a10.666667 10.666667 0 0 0 10.666667-10.666667v-215.166667l-185.126667-185.12a10.666667 10.666667 0 0 0-15.08 0zM170.666667 840.833333V928a10.666667 10.666667 0 0 0 10.666666 10.666667h85.833334l192.666666-192.666667-89.626666-89.62a10.666667 10.666667 0 0 0-15.08 0zM181.333333 170.666667a10.666667 10.666667 0 0 0-10.666666 10.666666v599.166667l154.286666-154.293333a53.333333 53.333333 0 0 1 75.426667 0L490 715.833333l218.286667-218.293333a53.333333 53.333333 0 0 1 75.426666 0L938.666667 652.5V181.333333a10.666667 10.666667 0 0 0-10.666667-10.666666zM64 682.666667a21.333333 21.333333 0 0 1-21.333333-21.333334V96a53.393333 53.393333 0 0 1 53.333333-53.333333h565.333333a21.333333 21.333333 0 0 1 0 42.666666H96a10.666667 10.666667 0 0 0-10.666667 10.666667v565.333333a21.333333 21.333333 0 0 1-21.333333 21.333334z m298.666667-213.333334c-58.813333 0-106.666667-47.853333-106.666667-106.666666s47.853333-106.666667 106.666667-106.666667 106.666667 47.853333 106.666666 106.666667-47.853333 106.666667-106.666666 106.666666z m0-170.666666a64 64 0 1 0 64 64 64.073333 64.073333 0 0 0-64-64z" fill="#5C5C66" p-id="20118"></path></svg>