<?xml version="1.0" standalone="no"?><!DOCTYPE svg PUBLIC "-//W3C//DTD SVG 1.1//EN" "http://www.w3.org/Graphics/SVG/1.1/DTD/svg11.dtd"><svg class="icon" width="32px" height="32.00px" viewBox="0 0 1024 1024" version="1.1" xmlns="http://www.w3.org/2000/svg"><path fill="#ffffff" d="M512 85.333333a426.666667 426.666667 0 0 0-345.6 676.693334L128 878.933333a20.906667 20.906667 0 0 0 5.12 21.76 21.76 21.76 0 0 0 21.76 5.546667l121.6-39.253333A426.666667 426.666667 0 1 0 512 85.333333z m248.32 602.453334a119.893333 119.893333 0 0 1-85.333333 60.16c-22.186667 4.693333-51.626667 8.533333-149.333334-32a530.346667 530.346667 0 0 1-213.333333-187.733334 242.773333 242.773333 0 0 1-50.773333-128 136.96 136.96 0 0 1 42.666666-104.106666 63.573333 63.573333 0 0 1 42.666667-15.36h14.08c12.373333 0 18.773333 0 27.306667 20.906666s34.986667 85.333333 37.973333 92.16a24.32 24.32 0 0 1 2.133333 23.04 78.933333 78.933333 0 0 1-14.08 19.626667c-5.973333 7.253333-12.373333 12.8-18.346666 20.48a20.053333 20.053333 0 0 0-5.12 26.88 381.44 381.44 0 0 0 69.12 85.333333 313.173333 313.173333 0 0 0 100.266666 61.866667 26.453333 26.453333 0 0 0 29.866667-4.693333 426.666667 426.666667 0 0 0 33.28-42.666667 23.893333 23.893333 0 0 1 30.72-8.96c11.52 3.84 72.533333 34.133333 85.333333 40.106667s20.906667 9.386667 23.893334 14.506666a106.666667 106.666667 0 0 1-2.986667 58.453334z" /></svg>